<svg width="24" height="24" viewBox="0 0 24 24" fill="none" xmlns="http://www.w3.org/2000/svg">
<path d="M13.24 22C13.72 22 14.1 21.62 14.1 21.14L14.1 12.68L10.43 12.68L12 14.25C12.29 14.54 12.29 15.02 12 15.31C11.71 15.6 11.23 15.6 10.94 15.31L8.10001 12.46C7.81001 12.17 7.81001 11.69 8.10001 11.4L10.94 8.55C11.09 8.4 11.28 8.33 11.47 8.33C11.66 8.33 11.85 8.4 12 8.55C12.29 8.84 12.29 9.32 12 9.61L10.44 11.17L14.1 11.17L14.1 2.84C14.1 2.37 13.72 1.98 13.24 1.98C7.35001 1.98 3.24001 6.09 3.24001 11.98C3.24001 17.87 7.36001 22 13.24 22Z" fill="#02020A"/>
<path d="M20.01 12.68C20.42 12.68 20.76 12.34 20.76 11.93C20.76 11.52 20.42 11.18 20.01 11.18L14.11 11.18L14.11 12.68L20.01 12.68Z" fill="#02020A"/>
</svg>
